<svg width="352" height="430" viewBox="0 0 352 430" fill="none" xmlns="http://www.w3.org/2000/svg">
<path d="M10.0565 387.367C4.36693 379.338 4.78683 369.081 0 360.702C0 306.422 0 252.142 0 197.863C2.37242 193.756 4.40892 189.421 7.15925 185.562C25.8027 159.33 52.9071 143.789 81.2711 130.395C108.858 117.351 137.432 106.392 166.384 96.5682C186.392 89.7781 205.498 80.4081 226.451 76.363C226.535 97.6208 226.703 118.879 226.64 140.136C226.598 153.49 227.731 166.925 225.464 180.175C219.522 214.89 196.05 235.652 166.09 250.883C136.383 265.991 104.051 275.092 74.2169 290.014C33.5708 310.364 9.4267 340.888 10.0565 387.367Z" fill="#46BAEC"/>
<path d="M0 187.564C5.41668 176.522 6.1305 164.098 11.0013 152.788C26.0336 118.115 52.9281 94.752 84.8193 75.8883C120.93 54.5273 159.918 38.5323 196.386 17.8318C205.96 12.3832 215.89 7.38863 224.183 0C224.876 0 225.59 0 226.283 0C226.304 19.5242 226.178 39.0483 226.451 58.5725C226.535 63.8766 224.582 69.5316 228.151 74.5055C227.584 75.1247 227.018 75.7438 226.451 76.3836C205.498 80.4288 186.392 89.7987 166.384 96.5888C137.432 106.413 108.879 117.372 81.2711 130.416C52.9071 143.81 25.8027 159.351 7.15925 185.583C4.40892 189.442 2.37242 193.776 0 197.883C0 194.437 0 191.011 0 187.564Z" fill="#76CBEA"/>
<path d="M349.9 18.1826C350.593 17.6254 351.307 17.0475 352 16.4903C352 77.6426 352 138.795 352 199.947L351.139 200.133L350.257 200.112C350.131 139.455 350.005 78.819 349.9 18.1826Z" fill="#B0C1E5"/>
<path d="M349.9 18.1826C350.005 78.819 350.131 139.455 350.236 200.112C347.507 224.012 332.118 239.326 313.327 252.08C281.541 273.627 245.01 284.731 209.004 296.825C173.019 308.919 136.572 319.796 102.35 336.41C91.1387 341.858 80.4943 348.401 70.7527 356.202C47.9943 374.385 38.3366 397.376 44.6141 426.105C43.9633 426.766 43.3334 427.426 42.6826 428.087C28.9099 416.777 17.5937 403.527 10.0355 387.387C9.4057 340.888 33.5498 310.364 74.1959 290.055C104.009 275.134 136.362 266.032 166.069 250.925C196.029 235.693 219.501 214.931 225.443 180.217C227.71 166.987 226.577 153.531 226.619 140.178C226.703 118.92 226.514 97.6621 226.43 76.4043C226.997 75.7851 227.563 75.1453 228.13 74.5261C269.826 59.6044 311.228 44.0635 347.864 18.6367C348.41 18.2652 349.229 18.3271 349.9 18.1826Z" fill="#3457A4"/>
<path d="M45.5589 429.552C44.0682 430.956 43.6483 428.665 42.7036 428.087C43.3544 427.426 43.9842 426.766 44.6351 426.105C45.9788 426.993 46.5246 428.623 45.5589 429.552Z" fill="#3457A4"/>
</svg>
